<svg width="258" height="45" viewBox="0 0 258 45" fill="none" xmlns="http://www.w3.org/2000/svg">
<path d="M31.05 44.702L28.188 36.062H9.72L5.94 44.702L0.324 44L15.876 0.799999L24.246 2.852L23.112 5.39L39.312 43.946L31.05 44.702ZM20.25 11.978L11.826 31.202L26.082 29.636L20.25 11.978ZM67.3684 15.38C67.1524 13.436 66.7564 11.888 66.1804 10.736C65.6404 9.584 65.0284 8.72 64.3444 8.144C63.4804 7.388 62.4904 6.848 61.3744 6.524C60.2944 6.164 58.9264 5.984 57.2704 5.984C54.9664 5.984 53.2204 6.632 52.0324 7.928C50.8444 9.188 50.2504 10.682 50.2504 12.41C50.2504 13.526 50.8084 14.588 51.9244 15.596C53.0764 16.568 54.5884 17.36 56.4604 17.972L62.9404 20.078C66.2884 21.158 68.8804 22.598 70.7164 24.398C72.5884 26.198 73.5244 28.718 73.5244 31.958C73.5244 36.062 72.1744 39.266 69.4744 41.57C66.8104 43.838 62.9944 44.972 58.0264 44.972C53.8144 44.972 50.3044 43.982 47.4964 42.002C44.7244 40.022 42.7984 37.394 41.7184 34.118L45.7144 31.472C46.7584 33.884 48.3424 35.81 50.4664 37.25C52.6264 38.654 55.1464 39.356 58.0264 39.356C60.4744 39.356 62.4544 38.726 63.9664 37.466C65.4784 36.17 66.2344 34.604 66.2344 32.768C66.2344 31.256 65.6044 29.96 64.3444 28.88C63.0844 27.8 61.3384 26.864 59.1064 26.072L53.0044 23.966C49.6924 22.814 47.2624 21.41 45.7144 19.754C44.1664 18.098 43.3924 15.776 43.3924 12.788C43.3924 10.592 43.9504 8.594 45.0664 6.794C46.1824 4.994 47.8024 3.554 49.9264 2.474C52.0864 1.394 54.6604 0.853999 57.6484 0.853999C61.0324 0.853999 64.0384 1.412 66.6664 2.528C69.2944 3.644 71.2204 5.03 72.4444 6.686L70.9324 15.38H67.3684ZM107.989 44.702L105.127 36.062H86.6595L82.8795 44.702L77.2635 44L92.8155 0.799999L101.185 2.852L100.051 5.39L116.251 43.946L107.989 44.702ZM97.1895 11.978L88.7655 31.202L103.021 29.636L97.1895 11.978ZM121.898 44.756L120.98 7.874L118.334 8.252L117.254 3.5C118.262 3.284 119.594 3.068 121.25 2.852C122.942 2.6 124.778 2.366 126.758 2.15C128.738 1.898 130.682 1.7 132.59 1.556C134.498 1.412 136.19 1.34 137.666 1.34C140.402 1.34 142.922 1.898 145.226 3.014C147.53 4.13 149.384 5.696 150.788 7.712C152.192 9.728 152.894 12.068 152.894 14.732C152.894 18.008 152.192 20.744 150.788 22.94C149.384 25.1 147.512 26.72 145.172 27.8C142.868 28.88 140.294 29.42 137.45 29.42C136.262 29.42 134.912 29.276 133.4 28.988C131.888 28.7 130.286 28.178 128.594 27.422V44L121.898 44.756ZM128.594 22.292C129.386 22.58 130.268 22.85 131.24 23.102C132.212 23.318 133.148 23.48 134.048 23.588C134.984 23.696 135.722 23.75 136.262 23.75C138.89 23.75 141.05 23.048 142.742 21.644C144.47 20.204 145.334 18.008 145.334 15.056C145.334 13.4 144.938 11.978 144.146 10.79C143.354 9.602 142.328 8.684 141.068 8.036C139.808 7.388 138.476 7.064 137.072 7.064C135.812 7.064 134.408 7.082 132.86 7.118C131.312 7.118 129.89 7.172 128.594 7.28V22.292ZM156.845 32.444V26.072H176.933V32.444H156.845ZM218.221 36.17C217.357 37.718 216.115 39.176 214.495 40.544C212.911 41.876 211.057 42.956 208.933 43.784C206.845 44.576 204.595 44.972 202.183 44.972C198.259 44.972 194.821 44.09 191.869 42.326C188.917 40.526 186.613 37.97 184.957 34.658C183.301 31.31 182.473 27.35 182.473 22.778C182.473 18.386 183.301 14.552 184.957 11.276C186.613 7.964 188.917 5.408 191.869 3.608C194.821 1.772 198.241 0.853999 202.129 0.853999C205.513 0.853999 208.519 1.412 211.147 2.528C213.775 3.644 215.701 5.03 216.925 6.686L215.413 16.46H211.849C211.273 12.608 210.265 10.052 208.825 8.792C207.961 8.036 206.971 7.496 205.855 7.172C204.775 6.812 203.407 6.632 201.751 6.632C199.555 6.632 197.557 7.226 195.757 8.414C193.993 9.566 192.589 11.348 191.545 13.76C190.501 16.136 189.979 19.142 189.979 22.778C189.979 26.09 190.555 28.952 191.707 31.364C192.859 33.74 194.407 35.576 196.351 36.872C198.295 38.132 200.455 38.762 202.831 38.762C204.523 38.762 206.143 38.474 207.691 37.898C209.239 37.286 210.643 36.512 211.903 35.576C213.199 34.604 214.261 33.578 215.089 32.498L218.221 36.17ZM236.717 44.702L219.059 1.88L227.699 0.799999L239.147 33.254L248.651 0.799999L257.345 1.88L242.171 39.95L243.305 42.974L236.717 44.702Z" fill="white"/>
</svg>
