<svg width="16" height="17" viewBox="0 0 16 17" fill="none" xmlns="http://www.w3.org/2000/svg">
<path d="M14.6667 8.50005C14.6667 8.75256 14.5241 8.9834 14.2982 9.09633L2.29822 15.0963C2.06819 15.2113 1.79252 15.1838 1.58981 15.0255C1.38709 14.8672 1.2935 14.6065 1.34929 14.3554L2.65049 8.50005L1.34929 2.64467C1.2935 2.39361 1.38709 2.13285 1.58981 1.97457C1.79252 1.8163 2.06819 1.78875 2.29822 1.90376L14.2982 7.90376C14.5241 8.01669 14.6667 8.24753 14.6667 8.50005ZM3.8682 9.16671L2.95472 13.2774L11.176 9.16671L3.8682 9.16671ZM11.176 7.83338L2.95472 3.72272L3.8682 7.83338L11.176 7.83338Z" fill="#5F2BD8"/>
</svg>
